<?xml version="1.0" encoding="UTF-8"?>
<svg width="24px" height="20px" viewBox="0 0 24 20" version="1.1" xmlns="http://www.w3.org/2000/svg" xmlns:xlink="http://www.w3.org/1999/xlink">
    <!-- Generator: Sketch 51.3 (57544) - http://www.bohemiancoding.com/sketch -->
    <title>Icons/files</title>
    <desc>Created with Sketch.</desc>
    <defs>
        <path d="M11,4 L11,20 L13,20 L13,4 L11,4 Z M10,2 L14,2 C14.5522847,2 15,2.44771525 15,3 L15,21 C15,21.5522847 14.5522847,22 14,22 L10,22 C9.44771525,22 9,21.5522847 9,21 L9,3 C9,2.44771525 9.44771525,2 10,2 Z M1,13 L5,13 C5.55228475,13 6,13.4477153 6,14 L6,21 C6,21.5522847 5.55228475,22 5,22 L1,22 C0.44771525,22 0,21.5522847 0,21 L0,14 C0,13.4477153 0.44771525,13 1,13 Z M2,20 L4,20 L4,15 L2,15 L2,20 Z M19,8 L23,8 C23.5522847,8 24,8.44771525 24,9 L24,21 C24,21.5522847 23.5522847,22 23,22 L19,22 C18.4477153,22 18,21.5522847 18,21 L18,9 C18,8.44771525 18.4477153,8 19,8 Z M20,10 L20,20 L22,20 L22,10 L20,10 Z" id="path-1"></path>
    </defs>
    <g id="Symbols" stroke="none" stroke-width="1" fill="none" fill-rule="evenodd">
        <g id="workbook-item/default" transform="translate(-24.000000, -36.000000)">
            <g id="Group-2" transform="translate(24.000000, 34.000000)">
                <g id="Group-5">
                    <g id="Icons/chart">
                        <mask id="mask-2" fill="white">
                            <use xlink:href="#path-1"></use>
                        </mask>
                        <g id="Combined-Shape" fill-rule="nonzero"></g>
                        <g id="_extras/Colors/Boulevard" mask="url(#mask-2)" fill="#16171A" fill-rule="evenodd">
                            <rect id="fill" x="0" y="0" width="24.96" height="24"></rect>
                        </g>
                    </g>
                </g>
            </g>
        </g>
    </g>
</svg>
