<?xml version="1.0" encoding="UTF-8"?>
<svg width="128px" height="118px" viewBox="0 0 128 118" version="1.1" xmlns="http://www.w3.org/2000/svg" xmlns:xlink="http://www.w3.org/1999/xlink">
    <!-- Generator: Sketch 51.3 (57544) - http://www.bohemiancoding.com/sketch -->
    <title>Group</title>
    <desc>Created with Sketch.</desc>
    <defs>
        <path d="M27.5,10 L27.5,50 L32.5,50 L32.5,10 L27.5,10 Z M25,5 L35,5 C36.3807119,5 37.5,6.11928813 37.5,7.5 L37.5,52.5 C37.5,53.8807119 36.3807119,55 35,55 L25,55 C23.6192881,55 22.5,53.8807119 22.5,52.5 L22.5,7.5 C22.5,6.11928813 23.6192881,5 25,5 Z M2.5,32.5 L12.5,32.5 C13.8807119,32.5 15,33.6192881 15,35 L15,52.5 C15,53.8807119 13.8807119,55 12.5,55 L2.5,55 C1.11928813,55 0,53.8807119 0,52.5 L0,35 C0,33.6192881 1.11928813,32.5 2.5,32.5 Z M5,50 L10,50 L10,37.5 L5,37.5 L5,50 Z M47.5,20 L57.5,20 C58.8807119,20 60,21.1192881 60,22.5 L60,52.5 C60,53.8807119 58.8807119,55 57.5,55 L47.5,55 C46.1192881,55 45,53.8807119 45,52.5 L45,22.5 C45,21.1192881 46.1192881,20 47.5,20 Z M50,25 L50,50 L55,50 L55,25 L50,25 Z" id="path-1"></path>
        <path d="M21.7857143,33.3774603 L7.43810812,18.8887302 C5.73653799,17.1704233 2.97774772,17.1704233 1.2761776,18.8887302 C-0.425392532,20.607037 -0.425392532,23.392963 1.2761776,25.1112698 L18.704749,42.7112698 C20.4063192,44.4295767 23.1651094,44.4295767 24.8666795,42.7112698 L59.7238224,7.51126984 C61.4253925,5.79296295 61.4253925,3.00703705 59.7238224,1.28873016 C58.0222523,-0.429576721 55.263462,-0.429576721 53.5618919,1.28873016 L21.7857143,33.3774603 Z" id="path-3"></path>
    </defs>
    <g id="v1_r0" stroke="none" stroke-width="1" fill="none" fill-rule="evenodd">
        <g id="Success" transform="translate(-668.000000, -414.000000)">
            <g id="Content" transform="translate(594.000000, 416.000000)">
                <g id="Icon">
                    <g id="Group" transform="translate(76.000000, 0.000000)">
                        <g id="Icons/chart" transform="translate(26.000000, 21.000000)">
                            <mask id="mask-2" fill="white">
                                <use xlink:href="#path-1"></use>
                            </mask>
                            <g id="Combined-Shape" fill-rule="nonzero"></g>
                            <g id="_extras/Colors/Cobalt" mask="url(#mask-2)" fill="#2B6BDD" fill-rule="evenodd">
                                <rect id="fill" x="0" y="0" width="60" height="60"></rect>
                            </g>
                        </g>
                        <circle id="Oval-2" stroke="#2B6BDD" stroke-width="4" cx="56.5" cy="56.5" r="56.5"></circle>
                        <g id="Icons/check-small" transform="translate(57.000000, 64.000000)">
                            <mask id="mask-4" fill="white">
                                <use xlink:href="#path-3"></use>
                            </mask>
                            <path stroke="#FFFFFF" stroke-width="8" d="M21.7857143,27.6927174 L50.7196566,-1.52582104 C53.9864297,-4.82472632 59.2992846,-4.82472632 62.5660577,-1.52582104 C65.8113141,1.7513559 65.8113141,7.0486441 62.5660577,10.325821 L27.7089149,45.525821 C24.4421418,48.8247263 19.1292868,48.8247263 15.8625137,45.525821 L-1.56605771,27.925821 C-4.8113141,24.6486441 -4.8113141,19.3513559 -1.56605771,16.074179 C1.70071538,12.7752737 7.01357034,12.7752737 10.2803434,16.074179 L21.7857143,27.6927174 Z"></path>
                            <g id="_extras/Colors/Cobalt" mask="url(#mask-4)" fill="#2B6BDD">
                                <g transform="translate(-22.000000, -30.000000)" id="fill">
                                    <rect x="0" y="0" width="104" height="105"></rect>
                                </g>
                            </g>
                        </g>
                    </g>
                </g>
            </g>
        </g>
    </g>
</svg>