<?xml version="1.0" encoding="UTF-8"?>
<svg width="22px" height="24px" viewBox="0 0 22 24" version="1.1" xmlns="http://www.w3.org/2000/svg" xmlns:xlink="http://www.w3.org/1999/xlink">
    <!-- Generator: Sketch 51.3 (57544) - http://www.bohemiancoding.com/sketch -->
    <title>Icons/files</title>
    <desc>Created with Sketch.</desc>
    <defs>
        <path d="M2,4 L18,4 C18.5522847,4 19,4.44771525 19,5 L19,23 C19,23.5522847 18.5522847,24 18,24 L2,24 C1.44771525,24 1,23.5522847 1,23 L1,5 C1,4.44771525 1.44771525,4 2,4 Z M3,6 L3,22 L17,22 L17,6 L3,6 Z M21,21 L21,2 L5,2 C4.44771525,2 4,1.55228475 4,1 C4,0.44771525 4.44771525,0 5,0 L22,0 C22.5522847,0 23,0.44771525 23,1 L23,21 C23,21.5522847 22.5522847,22 22,22 C21.4477153,22 21,21.5522847 21,21 Z M6,11 C5.44771525,11 5,10.5522847 5,10 C5,9.44771525 5.44771525,9 6,9 L14,9 C14.5522847,9 15,9.44771525 15,10 C15,10.5522847 14.5522847,11 14,11 L6,11 Z M6,15 C5.44771525,15 5,14.5522847 5,14 C5,13.4477153 5.44771525,13 6,13 L14,13 C14.5522847,13 15,13.4477153 15,14 C15,14.5522847 14.5522847,15 14,15 L6,15 Z M6,19 C5.44771525,19 5,18.5522847 5,18 C5,17.4477153 5.44771525,17 6,17 L10,17 C10.5522847,17 11,17.4477153 11,18 C11,18.5522847 10.5522847,19 10,19 L6,19 Z" id="path-1"></path>
    </defs>
    <g id="Symbols" stroke="none" stroke-width="1" fill="none" fill-rule="evenodd">
        <g id="workbook-item/default" transform="translate(-25.000000, -34.000000)">
            <g id="Group-2" transform="translate(24.000000, 34.000000)">
                <g id="Group-5">
                    <g id="Icons/files">
                        <g>
                            <mask id="mask-2" fill="white">
                                <use xlink:href="#path-1"></use>
                            </mask>
                            <g id="Combined-Shape" fill-rule="nonzero"></g>
                            <g id="_extras/Colors/Meteor" mask="url(#mask-2)" fill="#16171A" fill-rule="evenodd">
                                <rect id="fill" x="0" y="0" width="24" height="24"></rect>
                            </g>
                        </g>
                    </g>
                </g>
            </g>
        </g>
    </g>
</svg>
