<?xml version="1.0" encoding="UTF-8"?>
<svg width="128px" height="118px" viewBox="0 0 128 118" version="1.1" xmlns="http://www.w3.org/2000/svg" xmlns:xlink="http://www.w3.org/1999/xlink">
    <!-- Generator: Sketch 52.1 (67048) - http://www.bohemiancoding.com/sketch -->
    <title>Group</title>
    <desc>Created with Sketch.</desc>
    <defs>
        <path d="M5,10 L45,10 C46.3807119,10 47.5,11.1192881 47.5,12.5 L47.5,57.5 C47.5,58.8807119 46.3807119,60 45,60 L5,60 C3.61928813,60 2.5,58.8807119 2.5,57.5 L2.5,12.5 C2.5,11.1192881 3.61928813,10 5,10 Z M7.5,15 L7.5,55 L42.5,55 L42.5,15 L7.5,15 Z M52.5,52.5 L52.5,5 L12.5,5 C11.1192881,5 10,3.88071187 10,2.5 C10,1.11928813 11.1192881,0 12.5,0 L55,0 C56.3807119,0 57.5,1.11928813 57.5,2.5 L57.5,52.5 C57.5,53.8807119 56.3807119,55 55,55 C53.6192881,55 52.5,53.8807119 52.5,52.5 Z M15,27.5 C13.6192881,27.5 12.5,26.3807119 12.5,25 C12.5,23.6192881 13.6192881,22.5 15,22.5 L35,22.5 C36.3807119,22.5 37.5,23.6192881 37.5,25 C37.5,26.3807119 36.3807119,27.5 35,27.5 L15,27.5 Z M15,37.5 C13.6192881,37.5 12.5,36.3807119 12.5,35 C12.5,33.6192881 13.6192881,32.5 15,32.5 L35,32.5 C36.3807119,32.5 37.5,33.6192881 37.5,35 C37.5,36.3807119 36.3807119,37.5 35,37.5 L15,37.5 Z M15,47.5 C13.6192881,47.5 12.5,46.3807119 12.5,45 C12.5,43.6192881 13.6192881,42.5 15,42.5 L25,42.5 C26.3807119,42.5 27.5,43.6192881 27.5,45 C27.5,46.3807119 26.3807119,47.5 25,47.5 L15,47.5 Z" id="path-1"></path>
        <path d="M21.7857143,33.3774603 L7.43810812,18.8887302 C5.73653799,17.1704233 2.97774772,17.1704233 1.2761776,18.8887302 C-0.425392532,20.607037 -0.425392532,23.392963 1.2761776,25.1112698 L18.704749,42.7112698 C20.4063192,44.4295767 23.1651094,44.4295767 24.8666795,42.7112698 L59.7238224,7.51126984 C61.4253925,5.79296295 61.4253925,3.00703705 59.7238224,1.28873016 C58.0222523,-0.429576721 55.263462,-0.429576721 53.5618919,1.28873016 L21.7857143,33.3774603 Z" id="path-3"></path>
    </defs>
    <g id="v1_r0" stroke="none" stroke-width="1" fill="none" fill-rule="evenodd">
        <g id="Success" transform="translate(-968.000000, -414.000000)">
            <g id="Content" transform="translate(894.000000, 416.000000)">
                <g id="Icon">
                    <g id="Group" transform="translate(76.000000, 0.000000)">
                        <g id="Icons/files" transform="translate(26.000000, 21.000000)">
                            <mask id="mask-2" fill="white">
                                <use xlink:href="#path-1"></use>
                            </mask>
                            <g id="Combined-Shape" fill-rule="nonzero"></g>
                            <g id="_extras/Colors/Cobalt" mask="url(#mask-2)" fill="#2B6BDD" fill-rule="evenodd">
                                <rect id="fill" x="0" y="0" width="60" height="60"></rect>
                            </g>
                        </g>
                        <circle id="Oval-2" stroke="#2B6BDD" stroke-width="4" cx="56.5" cy="56.5" r="56.5"></circle>
                        <g id="Icons/check-small" transform="translate(57.000000, 64.000000)">
                            <mask id="mask-4" fill="white">
                                <use xlink:href="#path-3"></use>
                            </mask>
                            <path stroke="#FFFFFF" stroke-width="8" d="M21.7857143,27.6927174 L50.7196566,-1.52582104 C53.9864297,-4.82472632 59.2992846,-4.82472632 62.5660577,-1.52582104 C65.8113141,1.7513559 65.8113141,7.0486441 62.5660577,10.325821 L27.7089149,45.525821 C24.4421418,48.8247263 19.1292868,48.8247263 15.8625137,45.525821 L-1.56605771,27.925821 C-4.8113141,24.6486441 -4.8113141,19.3513559 -1.56605771,16.074179 C1.70071538,12.7752737 7.01357034,12.7752737 10.2803434,16.074179 L21.7857143,27.6927174 Z"></path>
                            <g id="_extras/Colors/Cobalt" mask="url(#mask-4)" fill="#2B6BDD">
                                <g transform="translate(-22.000000, -30.000000)" id="fill">
                                    <rect x="0" y="0" width="104" height="105"></rect>
                                </g>
                            </g>
                        </g>
                    </g>
                </g>
            </g>
        </g>
    </g>
</svg>