<?xml version="1.0" encoding="UTF-8"?>
<svg width="19px" height="20px" viewBox="0 0 19 20" version="1.1" xmlns="http://www.w3.org/2000/svg" xmlns:xlink="http://www.w3.org/1999/xlink">
    <!-- Generator: Sketch 51.3 (57544) - http://www.bohemiancoding.com/sketch -->
    <title>Icons/cloud-upload</title>
    <desc>Created with Sketch.</desc>
    <defs>
        <path d="M9.16666667,3.6785113 L5.58925565,7.25592232 C5.26381874,7.58135923 4.73618126,7.58135923 4.41074435,7.25592232 C4.08530744,6.93048541 4.08530744,6.40284793 4.41074435,6.07741102 L9.41074435,1.07741102 C9.73618126,0.751974106 10.2638187,0.751974106 10.5892557,1.07741102 L15.5892557,6.07741102 C15.9146926,6.40284793 15.9146926,6.93048541 15.5892557,7.25592232 C15.2638187,7.58135923 14.7361813,7.58135923 14.4107443,7.25592232 L10.8333333,3.6785113 L10.8333333,14.1666667 C10.8333333,14.626904 10.4602373,15 10,15 C9.53976271,15 9.16666667,14.626904 9.16666667,14.1666667 L9.16666667,3.6785113 Z M17.5,17.5 L17.5,13.3333333 C17.5,12.873096 17.873096,12.5 18.3333333,12.5 C18.7935706,12.5 19.1666667,12.873096 19.1666667,13.3333333 L19.1666667,18.3333333 C19.1666667,18.7935706 18.7935706,19.1666667 18.3333333,19.1666667 L1.66666667,19.1666667 C1.20642938,19.1666667 0.833333333,18.7935706 0.833333333,18.3333333 L0.833333333,13.3333333 C0.833333333,12.873096 1.20642938,12.5 1.66666667,12.5 C2.12690396,12.5 2.5,12.873096 2.5,13.3333333 L2.5,17.5 L17.5,17.5 Z" id="path-1"></path>
    </defs>
    <g id="v1_r0" stroke="none" stroke-width="1" fill="none" fill-rule="evenodd">
        <g id="Finance-Leasing-Companies" transform="translate(-310.000000, -259.000000)">
            <g id="Content" transform="translate(271.000000, 160.000000)">
                <g id="import/export-buttons" transform="translate(4.000000, 91.000000)">
                    <g id="Group-2">
                        <g id="Icons/upload" transform="translate(34.666667, 8.000000)">
                            <mask id="mask-2" fill="white">
                                <use xlink:href="#path-1"></use>
                            </mask>
                            <g id="Combined-Shape" fill-rule="nonzero"></g>
                            <g id="_extras/Colors/Cobalt" mask="url(#mask-2)" fill="#2B6BDD" fill-rule="evenodd">
                                <rect id="fill" x="0" y="0" width="20" height="20"></rect>
                            </g>
                        </g>
                    </g>
                </g>
            </g>
        </g>
    </g>
</svg>