<?xml version="1.0" encoding="UTF-8"?>
<svg width="20px" height="20px" viewBox="0 0 20 20" version="1.1" xmlns="http://www.w3.org/2000/svg" xmlns:xlink="http://www.w3.org/1999/xlink">
    <!-- Generator: Sketch 51.3 (57544) - http://www.bohemiancoding.com/sketch -->
    <title>Icons/cloud-upload</title>
    <desc>Created with Sketch.</desc>
    <defs>
        <path d="M10.8333333,12.154822 L14.4107443,8.57741102 C14.7361813,8.25197411 15.2638187,8.25197411 15.5892557,8.57741102 C15.9146926,8.90284793 15.9146926,9.43048541 15.5892557,9.75592232 L10.5892557,14.7559223 C10.2638187,15.0813592 9.73618126,15.0813592 9.41074435,14.7559223 L4.41074435,9.75592232 C4.08530744,9.43048541 4.08530744,8.90284793 4.41074435,8.57741102 C4.73618126,8.25197411 5.26381874,8.25197411 5.58925565,8.57741102 L9.16666667,12.154822 L9.16666667,1.66666667 C9.16666667,1.20642938 9.53976271,0.833333333 10,0.833333333 C10.4602373,0.833333333 10.8333333,1.20642938 10.8333333,1.66666667 L10.8333333,12.154822 Z M17.5,18.3333333 L17.5,14.1666667 C17.5,13.7064294 17.873096,13.3333333 18.3333333,13.3333333 C18.7935706,13.3333333 19.1666667,13.7064294 19.1666667,14.1666667 L19.1666667,19.1666667 C19.1666667,19.626904 18.7935706,20 18.3333333,20 L1.66666667,20 C1.20642938,20 0.833333333,19.626904 0.833333333,19.1666667 L0.833333333,14.1666667 C0.833333333,13.7064294 1.20642938,13.3333333 1.66666667,13.3333333 C2.12690396,13.3333333 2.5,13.7064294 2.5,14.1666667 L2.5,18.3333333 L17.5,18.3333333 Z" id="path-1"></path>
    </defs>
    <g id="v1_r0" stroke="none" stroke-width="1" fill="none" fill-rule="evenodd">
        <g id="Finance-Leasing-Companies" transform="translate(-598.000000, -259.000000)">
            <g id="Content" transform="translate(271.000000, 160.000000)">
                <g id="import/export-buttons" transform="translate(4.000000, 91.000000)">
                    <g id="Group-2" transform="translate(295.000000, 0.000000)">
                        <g id="Icons/download" transform="translate(28.000000, 8.000000)">
                            <mask id="mask-2" fill="white">
                                <use xlink:href="#path-1"></use>
                            </mask>
                            <g id="Combined-Shape" fill-rule="nonzero"></g>
                            <g id="_extras/Colors/Cobalt" mask="url(#mask-2)" fill="#2B6BDD" fill-rule="evenodd">
                                <rect id="fill" x="0" y="0" width="20" height="20"></rect>
                            </g>
                        </g>
                    </g>
                </g>
            </g>
        </g>
    </g>
</svg>