<?xml version="1.0" encoding="UTF-8"?>
<svg width="24px" height="24px" viewBox="0 0 24 24" version="1.1" xmlns="http://www.w3.org/2000/svg" xmlns:xlink="http://www.w3.org/1999/xlink">
    <!-- Generator: Sketch 51.3 (57544) - http://www.bohemiancoding.com/sketch -->
    <title>Icons/files</title>
    <desc>Created with Sketch.</desc>
    <defs>
        <polygon id="path-1" points="9.30232558e-05 -2.84217094e-14 23.8332751 -2.84217094e-14 23.8332751 23.8489052 9.30232558e-05 23.8489052"></polygon>
    </defs>
    <g id="Symbols" stroke="none" stroke-width="1" fill="none" fill-rule="evenodd">
        <g id="workbook-item/default" transform="translate(-24.000000, -34.000000)">
            <g id="Group-2" transform="translate(24.000000, 34.000000)">
                <g id="Group-5">
                    <g id="icon/gear">
                        <g id="Page-1">
                            <mask id="mask-2" fill="white">
                                <use xlink:href="#path-1"></use>
                            </mask>
                            <g id="Clip-2"></g>
                            <path d="M21.7831628,19.8891349 C21.7857674,18.8320186 20.8923721,17.921507 19.8484651,17.9166698 C18.8047442,17.9120186 17.8490233,18.9060651 17.8782326,19.965786 C17.9052093,20.9475535 18.7926512,21.7864372 19.8348837,21.8154605 C20.8871628,21.8450419 21.7805581,20.961507 21.7831628,19.8891349 Z M7.89311628,15.9127628 C7.89218605,14.257507 6.61386047,12.981786 4.956,12.9810419 C3.31116279,12.9802977 2.02446512,14.2710884 2.02576744,15.9200186 C2.02706977,17.5585302 3.32362791,18.8517395 4.96269767,18.849507 C6.61702326,18.8472744 7.89423256,17.5674605 7.89311628,15.9127628 Z M21.787814,6.06736744 C21.811814,3.85062326 20.0986977,2.0803907 17.9133953,2.06383256 C15.740186,2.04764651 13.9725581,3.73787907 13.9344186,5.86866977 C13.8949767,8.09564651 15.5876279,9.88690233 17.7610233,9.91797209 C19.9829767,9.94978605 21.764186,8.24634419 21.787814,6.06736744 Z M21.7509767,10.5808558 C17.8406512,13.4476465 12.5251163,11.5533209 11.8034419,6.13304186 C9.9024186,7.77211163 8.05144186,9.36764651 6.12232558,11.0309023 C9.36027907,12.045786 11.4343256,15.809693 8.48790698,19.5522047 C10.984093,20.0522977 13.4497674,20.5462512 15.9922791,21.0556465 C15.6562791,19.3099721 16.0456744,17.8893209 17.3636279,16.7992744 C18.6973953,15.6960186 20.1872558,15.7490419 21.7509767,16.3336 L21.7509767,10.5808558 Z M9.30232558e-05,14.921507 C0.509116279,13.2424372 1.71413953,12.1235535 3.00139535,11.0223442 C6.67506977,7.87983256 10.2795349,4.6563907 13.9550698,1.51611163 C15.8054884,-0.0650976744 17.967907,-0.439609302 20.2088372,0.534530233 C22.3997209,1.48671628 23.7284651,3.24411163 23.7738605,5.65564651 C23.8646512,10.4595535 23.8352558,15.2666233 23.791907,20.0716465 C23.7697674,22.5350884 21.3509767,24.2630884 18.9366512,23.7622512 C14.0333953,22.7453209 9.11451163,21.8039256 4.20288372,20.8281116 C2.3695814,20.4638326 1.05348837,19.4539721 0.336465116,17.7036465 C0.234325581,17.4543442 0.112651163,17.2128558 9.30232558e-05,16.9680186 L9.30232558e-05,14.921507 Z" id="Fill-1" fill="#6D727A" mask="url(#mask-2)"></path>
                        </g>
                    </g>
                </g>
            </g>
        </g>
    </g>
</svg>