<?xml version="1.0" encoding="UTF-8"?>
<svg width="128px" height="118px" viewBox="0 0 128 118" version="1.1" xmlns="http://www.w3.org/2000/svg" xmlns:xlink="http://www.w3.org/1999/xlink">
    <!-- Generator: Sketch 51.3 (57544) - http://www.bohemiancoding.com/sketch -->
    <title>Group</title>
    <desc>Created with Sketch.</desc>
    <defs>
        <path d="M21.7857143,33.3774603 L7.43810812,18.8887302 C5.73653799,17.1704233 2.97774772,17.1704233 1.2761776,18.8887302 C-0.425392532,20.607037 -0.425392532,23.392963 1.2761776,25.1112698 L18.704749,42.7112698 C20.4063192,44.4295767 23.1651094,44.4295767 24.8666795,42.7112698 L59.7238224,7.51126984 C61.4253925,5.79296295 61.4253925,3.00703705 59.7238224,1.28873016 C58.0222523,-0.429576721 55.263462,-0.429576721 53.5618919,1.28873016 L21.7857143,33.3774603 Z" id="path-1"></path>
        <polygon id="path-3" points="0.00023255814 -2.84217094e-14 59.5831877 -2.84217094e-14 59.5831877 59.6222631 0.00023255814 59.6222631"></polygon>
    </defs>
    <g id="v1_r0" stroke="none" stroke-width="1" fill="none" fill-rule="evenodd">
        <g id="Success" transform="translate(-668.000000, -414.000000)">
            <g id="Content" transform="translate(568.000000, 416.000000)">
                <g id="Icon">
                    <g id="Group" transform="translate(102.000000, 0.000000)">
                        <circle id="Oval-2" stroke="#2B6BDD" stroke-width="4" cx="56.5" cy="56.5" r="56.5"></circle>
                        <g id="Icons/check-small" transform="translate(57.000000, 64.000000)">
                            <mask id="mask-2" fill="white">
                                <use xlink:href="#path-1"></use>
                            </mask>
                            <path stroke="#FFFFFF" stroke-width="8" d="M21.7857143,27.6927174 L50.7196566,-1.52582104 C53.9864297,-4.82472632 59.2992846,-4.82472632 62.5660577,-1.52582104 C65.8113141,1.7513559 65.8113141,7.0486441 62.5660577,10.325821 L27.7089149,45.525821 C24.4421418,48.8247263 19.1292868,48.8247263 15.8625137,45.525821 L-1.56605771,27.925821 C-4.8113141,24.6486441 -4.8113141,19.3513559 -1.56605771,16.074179 C1.70071538,12.7752737 7.01357034,12.7752737 10.2803434,16.074179 L21.7857143,27.6927174 Z"></path>
                            <g id="_extras/Colors/Cobalt" mask="url(#mask-2)" fill="#2B6BDD">
                                <g transform="translate(-22.000000, -30.000000)" id="fill">
                                    <rect x="0" y="0" width="104" height="105"></rect>
                                </g>
                            </g>
                        </g>
                        <g id="Icons/vehicle" transform="translate(27.000000, 21.000000)">
                            <g id="Page-1">
                                <mask id="mask-4" fill="white">
                                    <use xlink:href="#path-3"></use>
                                </mask>
                                <g id="Clip-2"></g>
                                <path d="M54.457907,49.7228372 C54.4644186,47.0800465 52.2309302,44.8037674 49.6211628,44.7916744 C47.0118605,44.7800465 44.6225581,47.2651628 44.6955814,49.9144651 C44.7630233,52.3688837 46.9816279,54.466093 49.5872093,54.5386512 C52.217907,54.6126047 54.4513953,52.4037674 54.457907,49.7228372 Z M19.7327907,39.781907 C19.7304651,35.6437674 16.5346512,32.4544651 12.39,32.4526047 C8.27790698,32.4507442 5.06116279,35.6777209 5.0644186,39.8000465 C5.06767442,43.8963256 8.30906977,47.1293488 12.4067442,47.1237674 C16.5425581,47.118186 19.7355814,43.9186512 19.7327907,39.781907 Z M54.4695349,15.1684186 C54.5295349,9.62655814 50.2467442,5.20097674 44.7834884,5.1595814 C39.3504651,5.11911628 34.9313953,9.34469767 34.8360465,14.6716744 C34.7374419,20.2391163 38.9690698,24.7172558 44.4025581,24.7949302 C49.9574419,24.8744651 54.4104651,20.6158605 54.4695349,15.1684186 Z M54.3774419,26.4521395 C44.6016279,33.6191163 31.3127907,28.8833023 29.5086047,15.3326047 C24.7560465,19.4302791 20.1286047,23.4191163 15.305814,27.5772558 C23.4006977,30.1144651 28.585814,39.5242326 21.2197674,48.8805116 C27.4602326,50.1307442 33.6244186,51.3656279 39.9806977,52.6391163 C39.1406977,48.2749302 40.114186,44.7233023 43.4090698,41.998186 C46.7434884,39.2400465 50.4681395,39.3726047 54.3774419,40.834 L54.3774419,26.4521395 Z M0.00023255814,37.3037674 C1.2727907,33.106093 4.28534884,30.3088837 7.50348837,27.5558605 C16.6876744,19.6995814 25.6988372,11.6409767 34.8876744,3.79027907 C39.5137209,-0.162744186 44.9197674,-1.09902326 50.522093,1.33632558 C55.9993023,3.7167907 59.3211628,8.11027907 59.4346512,14.1391163 C59.6616279,26.1488837 59.5881395,38.1665581 59.4797674,50.1791163 C59.4244186,56.3377209 53.3774419,60.6577209 47.3416279,59.4056279 C35.0834884,56.8633023 22.7862791,54.509814 10.5072093,52.0702791 C5.92395349,51.1595814 2.63372093,48.6349302 0.841162791,44.2591163 C0.585813953,43.6358605 0.281627907,43.0321395 0.00023255814,42.4200465 L0.00023255814,37.3037674 Z" id="Fill-1" fill="#2B6BDD" mask="url(#mask-4)"></path>
                            </g>
                        </g>
                    </g>
                </g>
            </g>
        </g>
    </g>
</svg>