<?xml version="1.0" encoding="UTF-8"?>
<svg width="24px" height="20px" viewBox="0 0 24 20" version="1.1" xmlns="http://www.w3.org/2000/svg" xmlns:xlink="http://www.w3.org/1999/xlink">
    <!-- Generator: Sketch 51.3 (57544) - http://www.bohemiancoding.com/sketch -->
    <title>Icons/files</title>
    <desc>Created with Sketch.</desc>
    <defs>
        <path d="M18,3 C18,2.44771525 18.4477153,2 19,2 L23,2 C23.5522847,2 24,2.44771525 24,3 L24,21 C24,21.5522847 23.5522847,22 23,22 L1,22 C0.44771525,22 0,21.5522847 0,21 L0,3 C0,2.44771525 0.44771525,2 1,2 L5,2 C5.55228475,2 6,2.44771525 6,3 C6,3.55271525 6.44728475,4 7,4 C7.55271525,4 8,3.55271525 8,3 C8,2.44771525 8.44771525,2 9,2 L15,2 C15.5522847,2 16,2.44771525 16,3 C16,3.55271525 16.4472847,4 17,4 C17.5527153,4 18,3.55271525 18,3 Z M19.8293999,4 C19.4177095,5.16537884 18.3066217,6 17,6 C15.6933783,6 14.5822905,5.16537884 14.1706001,4 L9.82939991,4 C9.41770951,5.16537884 8.30662171,6 7,6 C5.69337829,6 4.58229049,5.16537884 4.17060009,4 L2,4 L2,20 L22,20 L22,4 L19.8293999,4 Z M15,16 C14.4477153,16 14,15.5522847 14,15 C14,14.4477153 14.4477153,14 15,14 L19,14 C19.5522847,14 20,14.4477153 20,15 C20,15.5522847 19.5522847,16 19,16 L15,16 Z M15,12 C14.4477153,12 14,11.5522847 14,11 C14,10.4477153 14.4477153,10 15,10 L19,10 C19.5522847,10 20,10.4477153 20,11 C20,11.5522847 19.5522847,12 19,12 L15,12 Z M4,17 C4,15.343 5.343,14 7,14 L9,14 C10.657,14 12,15.343 12,17 L4,17 Z M8,13 C6.8954305,13 6,12.1045695 6,11 C6,9.8954305 6.8954305,9 8,9 C9.1045695,9 10,9.8954305 10,11 C10,12.1045695 9.1045695,13 8,13 Z" id="path-1"></path>
    </defs>
    <g id="Symbols" stroke="none" stroke-width="1" fill="none" fill-rule="evenodd">
        <g id="workbook-item/default" transform="translate(-24.000000, -36.000000)">
            <g id="Group-2" transform="translate(24.000000, 34.000000)">
                <g id="Group-5">
                    <g id="Icons/profile">
                        <mask id="mask-2" fill="white">
                            <use xlink:href="#path-1"></use>
                        </mask>
                        <g id="Combined-Shape" fill-rule="nonzero"></g>
                        <g id="_extras/Colors/Boulevard" mask="url(#mask-2)" fill="#16171A" fill-rule="evenodd">
                            <rect id="fill" x="0" y="0" width="24.96" height="24"></rect>
                        </g>
                    </g>
                </g>
            </g>
        </g>
    </g>
</svg>