<?xml version="1.0" encoding="UTF-8"?>
<svg width="128px" height="118px" viewBox="0 0 128 118" version="1.1" xmlns="http://www.w3.org/2000/svg" xmlns:xlink="http://www.w3.org/1999/xlink">
    <!-- Generator: Sketch 51.3 (57544) - http://www.bohemiancoding.com/sketch -->
    <title>Group</title>
    <desc>Created with Sketch.</desc>
    <defs>
        <path d="M45,7.5 C45,6.11928813 46.1192881,5 47.5,5 L57.5,5 C58.8807119,5 60,6.11928813 60,7.5 L60,52.5 C60,53.8807119 58.8807119,55 57.5,55 L2.5,55 C1.11928813,55 0,53.8807119 0,52.5 L0,7.5 C0,6.11928813 1.11928813,5 2.5,5 L12.5,5 C13.8807119,5 15,6.11928813 15,7.5 C15,8.88178813 16.1182119,10 17.5,10 C18.8817881,10 20,8.88178813 20,7.5 C20,6.11928813 21.1192881,5 22.5,5 L37.5,5 C38.8807119,5 40,6.11928813 40,7.5 C40,8.88178813 41.1182119,10 42.5,10 C43.8817881,10 45,8.88178813 45,7.5 Z M49.5734998,10 C48.5442738,12.9134471 45.7665543,15 42.5,15 C39.2334457,15 36.4557262,12.9134471 35.4265002,10 L24.5734998,10 C23.5442738,12.9134471 20.7665543,15 17.5,15 C14.2334457,15 11.4557262,12.9134471 10.4265002,10 L5,10 L5,50 L55,50 L55,10 L49.5734998,10 Z M37.5,40 C36.1192881,40 35,38.8807119 35,37.5 C35,36.1192881 36.1192881,35 37.5,35 L47.5,35 C48.8807119,35 50,36.1192881 50,37.5 C50,38.8807119 48.8807119,40 47.5,40 L37.5,40 Z M37.5,30 C36.1192881,30 35,28.8807119 35,27.5 C35,26.1192881 36.1192881,25 37.5,25 L47.5,25 C48.8807119,25 50,26.1192881 50,27.5 C50,28.8807119 48.8807119,30 47.5,30 L37.5,30 Z M10,42.5 C10,38.3575 13.3575,35 17.5,35 L22.5,35 C26.6425,35 30,38.3575 30,42.5 L10,42.5 Z M20,32.5 C17.2385763,32.5 15,30.2614237 15,27.5 C15,24.7385763 17.2385763,22.5 20,22.5 C22.7614237,22.5 25,24.7385763 25,27.5 C25,30.2614237 22.7614237,32.5 20,32.5 Z" id="path-1"></path>
        <path d="M22.3238994,34.3100531 L8.03916291,19.9071633 C6.34504888,18.1990367 3.59834735,18.1990367 1.90423332,19.9071633 C0.210119292,21.6152898 0.210119292,24.3847102 1.90423332,26.0928367 L19.2564346,43.5885632 C20.9505486,45.2966898 23.6972501,45.2966898 25.3913642,43.5885632 L60.0957667,8.59711022 C61.7898807,6.88898367 61.7898807,4.11956334 60.0957667,2.41143679 C58.4016527,0.703310243 55.6549511,0.703310243 53.9608371,2.41143679 L22.3238994,34.3100531 Z" id="path-3"></path>
    </defs>
    <g id="v1_r0" stroke="none" stroke-width="1" fill="none" fill-rule="evenodd">
        <g id="Success" transform="translate(-668.000000, -414.000000)">
            <g id="Content" transform="translate(575.000000, 416.000000)">
                <g id="Icon">
                    <g id="Group" transform="translate(95.000000, 0.000000)">
                        <g id="Icons/profile" transform="translate(26.000000, 21.000000)">
                            <mask id="mask-2" fill="white">
                                <use xlink:href="#path-1"></use>
                            </mask>
                            <g id="Combined-Shape" fill-rule="nonzero"></g>
                            <g id="_extras/Colors/Cobalt" mask="url(#mask-2)" fill="#2B6BDD" fill-rule="evenodd">
                                <rect id="fill" x="0" y="0" width="60" height="60"></rect>
                            </g>
                        </g>
                        <circle id="Oval-2" stroke="#2B6BDD" stroke-width="4" cx="56.5" cy="56.5" r="56.5"></circle>
                        <g id="Icons/check-small" transform="translate(56.000000, 63.000000)">
                            <mask id="mask-4" fill="white">
                                <use xlink:href="#path-3"></use>
                            </mask>
                            <path stroke="#FFFFFF" stroke-width="8" d="M22.3238994,28.6297559 L51.1207848,-0.405317236 C54.3796179,-3.69110508 59.6769859,-3.69110508 62.9358189,-0.405317236 C66.17653,2.86219869 66.17653,8.14634832 62.9358189,11.4138642 L28.2314164,46.4053172 C24.9725833,49.6911051 19.6752154,49.6911051 16.4163823,46.4053172 L-0.935818924,28.9095907 C-4.17652996,25.6420748 -4.17652996,20.3579252 -0.935818924,17.0904093 C2.32301414,13.8046214 7.62038209,13.8046214 10.8792152,17.0904093 L22.3238994,28.6297559 Z"></path>
                            <g id="_extras/Colors/Cobalt" mask="url(#mask-4)" fill="#2B6BDD">
                                <g transform="translate(-21.056604, -29.487179)" id="fill">
                                    <rect x="0" y="0" width="104" height="105"></rect>
                                </g>
                            </g>
                        </g>
                    </g>
                </g>
            </g>
        </g>
    </g>
</svg>