<?xml version="1.0" encoding="UTF-8"?>
<svg width="24px" height="18px" viewBox="0 0 24 18" version="1.1" xmlns="http://www.w3.org/2000/svg" xmlns:xlink="http://www.w3.org/1999/xlink">
    <!-- Generator: Sketch 51.3 (57544) - http://www.bohemiancoding.com/sketch -->
    <title>Icons/files</title>
    <desc>Created with Sketch.</desc>
    <defs>
        <path d="M22.8041827,9 L23.813468,10.411636 C23.9347795,10.5813082 24,10.7846668 24,10.9932457 L24,20 C24,20.5522847 23.5522847,21 23,21 L20,21 C19.5831554,21 19.2100347,20.7414272 19.0636708,20.3511234 C18.9959935,20.1706506 18.8486824,19.8632188 18.6447081,19.5665288 C18.3826976,19.1854226 18.1393304,19 18,19 L6,19 C5.86066963,19 5.61730244,19.1854226 5.35529192,19.5665288 C5.15131757,19.8632188 5.00400649,20.1706506 4.93632918,20.3511234 C4.78996528,20.7414272 4.41684456,21 4,21 L1,21 C0.44771525,21 0,20.5522847 0,20 L0,10.9932457 C0,10.7846668 0.065220513,10.5813082 0.186532043,10.411636 L1.19581731,9 L1,9 C0.44771525,9 0,8.55228475 0,8 C0,7.44771525 0.44771525,7 1,7 L2,7 C2.19093407,7 2.36936998,7.05351095 2.52112894,7.14635403 L5.18653204,3.41839027 C5.37426982,3.15581098 5.67721004,3 6,3 L18,3 C18.32279,3 18.6257302,3.15581098 18.813468,3.41839027 L21.4788711,7.14635403 C21.63063,7.05351095 21.8090659,7 22,7 L23,7 C23.5522847,7 24,7.44771525 24,8 C24,8.55228475 23.5522847,9 23,9 L22.8041827,9 Z M3.36163834,19 C3.4590223,18.8189623 3.57402111,18.6271977 3.70720808,18.4334712 C4.30457256,17.5645774 5.04558037,17 6,17 L18,17 C18.9544196,17 19.6954274,17.5645774 20.2927919,18.4334712 C20.4259789,18.6271977 20.5409777,18.8189623 20.6383617,19 L22,19 L22,11.3139626 L17.4856709,5 L6.51432913,5 L2,11.3139626 L2,19 L3.36163834,19 Z M9,15 L9,13 L15,13 L15,15 L9,15 Z M3,13 L3,11 L4.93762171,11.0019474 C4.95454623,11.0009541 4.95454623,11.0009541 4.98306914,10.9998511 C5.40571901,10.9859095 5.91047371,11.0567472 6.42443388,11.2976661 C7.39641611,11.7532827 8,12.6775206 8,14 L6,14 C6,13.4631044 5.85358389,13.2389048 5.57556612,13.1085839 C5.39492795,13.0239098 5.18401711,12.9943104 5.0490055,12.9987639 C5.05099394,12.9986996 5.05099394,12.9986996 5,13 L3,13 Z M21,11 L21,13 C19.9719624,12.9994034 19.456487,12.9990565 19.4535736,12.9989595 C19.2224434,12.9928602 18.8935814,13.0297824 18.6011234,13.1394542 C18.1846781,13.2956212 18,13.5218519 18,14 L16,14 C16,12.6187731 16.7528219,11.6965663 17.8988766,11.2667958 C18.4746665,11.0508746 19.0403864,10.9873597 19.5,11 L21,11 Z" id="path-1"></path>
    </defs>
    <g id="Symbols" stroke="none" stroke-width="1" fill="none" fill-rule="evenodd">
        <g id="workbook-item/default" transform="translate(-24.000000, -37.000000)">
            <g id="Group-2" transform="translate(24.000000, 34.000000)">
                <g id="Group-5">
                    <g id="Icons/vehicle">
                        <mask id="mask-2" fill="white">
                            <use xlink:href="#path-1"></use>
                        </mask>
                        <g id="Combined-Shape" fill-rule="nonzero"></g>
                        <g id="_extras/Colors/Boulevard" mask="url(#mask-2)" fill="#16171A" fill-rule="evenodd">
                            <rect id="fill" x="0" y="0" width="24.96" height="24"></rect>
                        </g>
                    </g>
                </g>
            </g>
        </g>
    </g>
</svg>