<?xml version="1.0" encoding="UTF-8"?>
<svg width="128px" height="118px" viewBox="0 0 128 118" version="1.1" xmlns="http://www.w3.org/2000/svg" xmlns:xlink="http://www.w3.org/1999/xlink">
    <!-- Generator: Sketch 51.3 (57544) - http://www.bohemiancoding.com/sketch -->
    <title>Group</title>
    <desc>Created with Sketch.</desc>
    <defs>
        <path d="M57.0104567,22.5 L59.5336699,26.02909 C59.8369487,26.4532706 60,26.961667 60,27.4831143 L60,50 C60,51.3807119 58.8807119,52.5 57.5,52.5 L50,52.5 C48.9578886,52.5 48.0250868,51.8535679 47.6591771,50.8778086 C47.4899838,50.4266265 47.1217061,49.658047 46.6117702,48.9163221 C45.9567439,47.9635566 45.3483259,47.5 45,47.5 L15,47.5 C14.6516741,47.5 14.0432561,47.9635566 13.3882298,48.9163221 C12.8782939,49.658047 12.5100162,50.4266265 12.3408229,50.8778086 C11.9749132,51.8535679 11.0421114,52.5 10,52.5 L2.5,52.5 C1.11928813,52.5 0,51.3807119 0,50 L0,27.4831143 C0,26.961667 0.163051283,26.4532706 0.466330108,26.02909 L2.98954329,22.5 L2.5,22.5 C1.11928813,22.5 0,21.3807119 0,20 C0,18.6192881 1.11928813,17.5 2.5,17.5 L5,17.5 C5.47733517,17.5 5.92342496,17.6337774 6.30282235,17.8658851 L12.9663301,8.54597566 C13.4356746,7.88952745 14.1930251,7.5 15,7.5 L45,7.5 C45.8069749,7.5 46.5643254,7.88952745 47.0336699,8.54597566 L53.6971776,17.8658851 C54.076575,17.6337774 54.5226648,17.5 55,17.5 L57.5,17.5 C58.8807119,17.5 60,18.6192881 60,20 C60,21.3807119 58.8807119,22.5 57.5,22.5 L57.0104567,22.5 Z M8.40409584,47.5 C8.64755576,47.0474058 8.93505277,46.5679942 9.26802019,46.0836779 C10.7614314,43.9114434 12.6139509,42.5 15,42.5 L45,42.5 C47.3860491,42.5 49.2385686,43.9114434 50.7319798,46.0836779 C51.0649472,46.5679942 51.3524442,47.0474058 51.5959042,47.5 L55,47.5 L55,28.2849064 L43.7141772,12.5 L16.2858228,12.5 L5,28.2849064 L5,47.5 L8.40409584,47.5 Z M22.5,37.5 L22.5,32.5 L37.5,32.5 L37.5,37.5 L22.5,37.5 Z M7.5,32.5 L7.5,27.5 L12.3440543,27.5048686 C12.3863656,27.5023853 12.3863656,27.5023853 12.4576729,27.4996277 C13.5142975,27.4647738 14.7761843,27.6418681 16.0610847,28.2441652 C18.4910403,29.3832068 20,31.6938014 20,35 L15,35 C15,33.6577611 14.6339597,33.0972619 13.9389153,32.7714598 C13.4873199,32.5597745 12.9600428,32.4857759 12.6225138,32.4969097 C12.6274848,32.4967491 12.6274848,32.4967491 12.5,32.5 L7.5,32.5 Z M52.5,27.5 L52.5,32.5 C49.9299061,32.4985084 48.6412174,32.4976413 48.6339341,32.4973987 C48.0561086,32.4821505 47.2339535,32.5744561 46.5028086,32.8486354 C45.4616953,33.2390529 45,33.8046297 45,35 L40,35 C40,31.5469328 41.8820547,29.2414158 44.7471914,28.1669896 C46.1866663,27.6271865 47.600966,27.4683992 48.75,27.5 L52.5,27.5 Z" id="path-1"></path>
        <path d="M22.3238994,34.3100531 L8.03916291,19.9071633 C6.34504888,18.1990367 3.59834735,18.1990367 1.90423332,19.9071633 C0.210119292,21.6152898 0.210119292,24.3847102 1.90423332,26.0928367 L19.2564346,43.5885632 C20.9505486,45.2966898 23.6972501,45.2966898 25.3913642,43.5885632 L60.0957667,8.59711022 C61.7898807,6.88898367 61.7898807,4.11956334 60.0957667,2.41143679 C58.4016527,0.703310243 55.6549511,0.703310243 53.9608371,2.41143679 L22.3238994,34.3100531 Z" id="path-3"></path>
    </defs>
    <g id="v1_r0" stroke="none" stroke-width="1" fill="none" fill-rule="evenodd">
        <g id="Success" transform="translate(-668.000000, -414.000000)">
            <g id="Content" transform="translate(575.000000, 416.000000)">
                <g id="Icon">
                    <g id="Group" transform="translate(95.000000, 0.000000)">
                        <g id="Icons/vehicle" transform="translate(26.000000, 21.000000)">
                            <mask id="mask-2" fill="white">
                                <use xlink:href="#path-1"></use>
                            </mask>
                            <g id="Combined-Shape" fill-rule="nonzero"></g>
                            <g id="_extras/Colors/Cobalt" mask="url(#mask-2)" fill="#2B6BDD" fill-rule="evenodd">
                                <rect id="fill" x="0" y="0" width="60" height="60"></rect>
                            </g>
                        </g>
                        <circle id="Oval-2" stroke="#2B6BDD" stroke-width="4" cx="56.5" cy="56.5" r="56.5"></circle>
                        <g id="Icons/check-small" transform="translate(56.000000, 63.000000)">
                            <mask id="mask-4" fill="white">
                                <use xlink:href="#path-3"></use>
                            </mask>
                            <path stroke="#FFFFFF" stroke-width="8" d="M22.3238994,28.6297559 L51.1207848,-0.405317236 C54.3796179,-3.69110508 59.6769859,-3.69110508 62.9358189,-0.405317236 C66.17653,2.86219869 66.17653,8.14634832 62.9358189,11.4138642 L28.2314164,46.4053172 C24.9725833,49.6911051 19.6752154,49.6911051 16.4163823,46.4053172 L-0.935818924,28.9095907 C-4.17652996,25.6420748 -4.17652996,20.3579252 -0.935818924,17.0904093 C2.32301414,13.8046214 7.62038209,13.8046214 10.8792152,17.0904093 L22.3238994,28.6297559 Z"></path>
                            <g id="_extras/Colors/Cobalt" mask="url(#mask-4)" fill="#2B6BDD">
                                <g transform="translate(-21.056604, -29.487179)" id="fill">
                                    <rect x="0" y="0" width="104" height="105"></rect>
                                </g>
                            </g>
                        </g>
                    </g>
                </g>
            </g>
        </g>
    </g>
</svg>