<?xml version="1.0" encoding="UTF-8"?>
<svg width="128px" height="118px" viewBox="0 0 128 118" version="1.1" xmlns="http://www.w3.org/2000/svg" xmlns:xlink="http://www.w3.org/1999/xlink">
    <!-- Generator: Sketch 51.3 (57544) - http://www.bohemiancoding.com/sketch -->
    <title>Group</title>
    <desc>Created with Sketch.</desc>
    <defs>
        <path d="M52.8270598,12.08305 C54.0849588,10.83029 56.2301311,11.3689161 56.7413052,13.0658683 C57.634086,16.0296463 57.772749,18.9987204 56.9764044,21.9038947 C55.3138756,27.4230168 50.8593516,31.5533885 45.0843253,32.6922819 C42.7394292,32.9258135 40.8542726,32.9050369 39.0632995,32.5310195 L20.1199927,53.834212 C16.409231,58.4537138 9.60319966,58.7442092 5.33700839,54.4954473 C1.32609142,50.5009169 1.61352209,43.8216013 5.91111236,39.848181 L27.3327519,20.9585937 C27.0969897,20.0111193 26.9833557,19.04735 26.9842452,18.0338486 C26.7075576,10.0426893 33.0190954,3.06808757 41.0888045,2.5 C43.1570335,2.5 45.0220829,2.75619722 46.9068557,3.29250368 C48.6304787,3.78295544 49.1909472,5.93703771 47.9233912,7.19941519 L42.5328161,12.5679672 L47.4364847,17.451602 L52.8270598,12.08305 Z M48.8725178,22.5308268 C47.9659774,23.4325504 46.4961851,23.4325504 45.5896447,22.5308268 L37.4649485,14.4493003 C36.5584081,13.5475767 36.5584081,12.085594 37.4649485,11.1838704 L41.1682899,7.50020628 C35.8154826,7.87750947 31.4896552,12.6518964 31.6780912,18.1273028 C31.6780912,19.1916694 31.8439235,20.0576629 32.2084637,20.9641711 C32.5724397,21.8692761 32.3257448,22.9042425 31.5919935,23.5504661 L9.34783031,43.1403052 C7.0369295,45.27474 6.88300098,48.8473216 8.9454389,50.898801 C11.2200904,53.1613664 14.7155321,53.0123577 16.7084573,50.5390493 L36.4398625,28.3725765 C37.0565289,27.6798068 38.0294169,27.4201196 38.911921,27.7127246 C40.4365713,28.218241 42.0558311,28.3053035 44.2223527,28.1008748 C47.9969497,27.3499666 51.0497532,24.5228034 52.1876943,20.7523733 C52.3513093,20.1556393 52.4546781,19.5450907 52.5,18.9226189 L48.8725178,22.5308268 Z" id="path-1"></path>
        <path d="M22.3238994,34.3100531 L8.03916291,19.9071633 C6.34504888,18.1990367 3.59834735,18.1990367 1.90423332,19.9071633 C0.210119292,21.6152898 0.210119292,24.3847102 1.90423332,26.0928367 L19.2564346,43.5885632 C20.9505486,45.2966898 23.6972501,45.2966898 25.3913642,43.5885632 L60.0957667,8.59711022 C61.7898807,6.88898367 61.7898807,4.11956334 60.0957667,2.41143679 C58.4016527,0.703310243 55.6549511,0.703310243 53.9608371,2.41143679 L22.3238994,34.3100531 Z" id="path-3"></path>
    </defs>
    <g id="v1_r0" stroke="none" stroke-width="1" fill="none" fill-rule="evenodd">
        <g id="Success" transform="translate(-668.000000, -414.000000)">
            <g id="Content" transform="translate(569.000000, 416.000000)">
                <g id="Icon">
                    <g id="Group" transform="translate(101.000000, 0.000000)">
                        <g id="Icons/repair" transform="translate(26.000000, 21.000000)">
                            <mask id="mask-2" fill="white">
                                <use xlink:href="#path-1"></use>
                            </mask>
                            <use id="Shape" fill="#111111" fill-rule="nonzero" xlink:href="#path-1"></use>
                            <g id="_extras/Colors/Cobalt" mask="url(#mask-2)" fill="#2B6BDD" fill-rule="evenodd">
                                <rect id="fill" x="0" y="0" width="60" height="60"></rect>
                            </g>
                        </g>
                        <circle id="Oval-2" stroke="#2B6BDD" stroke-width="4" cx="56.5" cy="56.5" r="56.5"></circle>
                        <g id="Icons/check-small" transform="translate(56.000000, 63.000000)">
                            <mask id="mask-4" fill="white">
                                <use xlink:href="#path-3"></use>
                            </mask>
                            <path stroke="#FFFFFF" stroke-width="8" d="M22.3238994,28.6297559 L51.1207848,-0.405317236 C54.3796179,-3.69110508 59.6769859,-3.69110508 62.9358189,-0.405317236 C66.17653,2.86219869 66.17653,8.14634832 62.9358189,11.4138642 L28.2314164,46.4053172 C24.9725833,49.6911051 19.6752154,49.6911051 16.4163823,46.4053172 L-0.935818924,28.9095907 C-4.17652996,25.6420748 -4.17652996,20.3579252 -0.935818924,17.0904093 C2.32301414,13.8046214 7.62038209,13.8046214 10.8792152,17.0904093 L22.3238994,28.6297559 Z"></path>
                            <g id="_extras/Colors/Cobalt" mask="url(#mask-4)" fill="#2B6BDD">
                                <g transform="translate(-21.056604, -29.487179)" id="fill">
                                    <rect x="0" y="0" width="104" height="105"></rect>
                                </g>
                            </g>
                        </g>
                    </g>
                </g>
            </g>
        </g>
    </g>
</svg>