<?xml version="1.0" encoding="UTF-8"?>
<svg width="22px" height="22px" viewBox="0 0 22 22" version="1.1" xmlns="http://www.w3.org/2000/svg" xmlns:xlink="http://www.w3.org/1999/xlink">
    <!-- Generator: Sketch 51.3 (57544) - http://www.bohemiancoding.com/sketch -->
    <title>Icons/files</title>
    <desc>Created with Sketch.</desc>
    <defs>
        <path d="M21.1308239,4.83321999 C21.6339835,4.33211601 22.4920524,4.54756644 22.6965221,5.22634732 C23.0536344,6.41185852 23.1090996,7.59948815 22.7905618,8.76155786 C22.1255502,10.9692067 20.3437407,12.6213554 18.0337301,13.0769127 C17.0957717,13.1703254 16.341709,13.1620148 15.6253198,13.0124078 L8.0479971,21.5336848 C6.56369241,23.3814855 3.84127987,23.4976837 2.13480335,21.7981789 C0.530436567,20.2003667 0.645408836,17.5286405 2.36444494,15.9392724 L10.9331008,8.3834375 C10.8387959,8.00444773 10.7933423,7.61894 10.7936981,7.21353943 C10.683023,4.01707573 13.2076382,1.22723503 16.4355218,1 C17.2628134,1 18.0088332,1.10247889 18.7627423,1.31700147 C19.4521915,1.51318217 19.6763789,2.37481508 19.1693565,2.87976608 L17.0131264,5.0271869 L18.9745939,6.98064081 L21.1308239,4.83321999 Z M19.5490071,9.01233074 C19.186391,9.37302016 18.598474,9.37302016 18.2358579,9.01233074 L14.9859794,5.77972011 C14.6233632,5.41903069 14.6233632,4.83423759 14.9859794,4.47354817 L16.467316,3.00008251 C14.3261931,3.15100379 12.5958621,5.06075857 12.6712365,7.25092112 C12.6712365,7.67666774 12.7375694,8.02306516 12.8833855,8.38566842 C13.0289759,8.74771046 12.9302979,9.161697 12.6367974,9.42018644 L3.73913212,17.2561221 C2.8147718,18.109896 2.75320039,19.5389286 3.57817556,20.3595204 C4.48803616,21.2645466 5.88621282,21.2049431 6.6833829,20.2156197 L14.575945,11.3490306 C14.8226116,11.0719227 15.2117668,10.9680478 15.5647684,11.0850898 C16.1746285,11.2872964 16.8223324,11.3221214 17.6889411,11.2403499 C19.1987799,10.9399866 20.4199013,9.80912134 20.8750777,8.30094934 C20.9405237,8.0622557 20.9818712,7.8180363 21,7.56904755 L19.5490071,9.01233074 Z" id="path-1"></path>
    </defs>
    <g id="Symbols" stroke="none" stroke-width="1" fill="none" fill-rule="evenodd">
        <g id="workbook-item/default" transform="translate(-25.000000, -35.000000)">
            <g id="Group-2" transform="translate(24.000000, 34.000000)">
                <g id="Group-5">
                    <g id="Icons/repair">
                        <mask id="mask-2" fill="white">
                            <use xlink:href="#path-1"></use>
                        </mask>
                        <use id="Shape" fill="#111111" fill-rule="nonzero" xlink:href="#path-1"></use>
                        <g id="_extras/Colors/Boulevard" mask="url(#mask-2)" fill="#16171A" fill-rule="evenodd">
                            <rect id="fill" x="0" y="0" width="24.96" height="24"></rect>
                        </g>
                    </g>
                </g>
            </g>
        </g>
    </g>
</svg>